# xmcd
#
# Track frame offsets:
#	150
#	20837
#	39375
#	58070
#	79896
#	95823
#	115268
#	136320
#	157245
#	174066
#	189054
#	206930
#	227182
#	245175
#
# Disc length: 3426 seconds
#
# Revision: 1
# Processed by: cddbd v1.5.2PL0 Copyright (c) Steve Scherf et al.
# Submitted via: audiograbber 1.83.01
#
DISCID=c70d600e
DTITLE=albi - albi Sound Collection - Romantic Dreams
DYEAR=2006
DGENRE=Rhythmic Soul
TTITLE0=Counting Back Twice - Uninvited
TTITLE1=Chasing Shadows - Looking through your eyes
TTITLE2=The Soundries - The prayer
TTITLE3=Megaone - I don't want to miss a thing
TTITLE4=BeCee Cliff - Reflection
TTITLE5=Floating Soul - Chances are hope
TTITLE6=Pevee Kline - My heart will go on
TTITLE7=Hide and Seek - Angel
TTITLE8=The Wondering Stars - Best of my love
TTITLE9=Sean Laurash - You don't know me
TTITLE10=The Baskets - I believe in you and me
TTITLE11=Pop Bandits - When I fall in love
TTITLE12=The Dating Five - Can you feel the love tonight
TTITLE13=Dionne Warwick feat. Tom Jones - Endless love
EXTD=
EXTT0=
EXTT1=
EXTT2=
EXTT3=
EXTT4=
EXTT5=
EXTT6=
EXTT7=
EXTT8=
EXTT9=
EXTT10=
EXTT11=
EXTT12=
EXTT13=
PLAYORDER=
